<?xml version="1.0" encoding="UTF-8"?>
<svg version="1.1" viewBox="0 0 1600 900" width="1024" height="576" xmlns="http://www.w3.org/2000/svg">
<path transform="translate(0)" d="m0 0h1600v900h-1600z" fill="#7E46D2"/>
<path transform="translate(1014)" d="m0 0h586v900h-200l-11-12v-2h-2l-7-8-9-10-11-8-27-15-18-11-28-15-17-8-9-6-5-10-6-24-6-26-8-27-4-20-2-17-1-20 1-12 5-12 8-20 4-13 1-7v-9l-2-16-6-21-8-24-4-20-11-80-4-18-9-21-10-22-12-17-10-13-8-11-10-13-11-13-9-11-11-14-10-18-13-30-4-8-1 11h-1l-1-26-2-7-5-3-18-1-6-5-6-9-8-14-14-23-11-21-8-21-5-20v-16l2-23 1-29z" fill="#7E46D3"/>
<path transform="translate(1095,216)" d="m0 0 3 4 8 17 9 21 9 16 9 11 7 9 12 14 11 14 13 18 10 13 10 15 16 36 4 13 3 16 10 74 4 20 12 37 3 14 1 10v9l-3 15-14 35-1 2-1 15 2 26 3 19 6 23 5 18 6 25 5 20 5 10 12 7 23 11 23 13 22 13 23 13 12 11 10 11v2h2l9 11 2 3h-1031l3-2 62-15 45-9 28-7 3-3 20-7 27-11 16-7h2l1-6 1-19 3-5 3-1v-12l-7-1-1-2 2-25 3-66 1-12 5-141 2-38 3-27-1-1v-20l3-15 2 1 14-6 9-3 1-4-4-1 1-4h11v3 5l9 3 8 1 5-2v-9l-1-5-16 2-17 1-3 1 1 3-13 1-3 3-26 2h-10l-8-3-3-5v-12l5-12 7-15 8-15 3-9-129-1-5-3-2-3v-103l4-4 3-1h181l10-2h9l14 4 5 8 4 11v9l-5 4 1 11v12l-3 10-4 6-11 4h-2l3 7 4 7v2h11l13 5 6 5 4 10 8 36 1 15-8 18-2 4-4-1-2-2v7h3l-2 9-5 12-3 7 1 5 7 1v2l-3 2 5 1 10 61 7 56 3 27v30l-2 26-2 55-1 18v21l9-18 7-44 4-15 8-20 6-11 8-7 20-12 13-12 14-27 6-11 7-6 11-4h11l17 6 22 8 5 2 2 41 1 11v37l-5 57-3 32-1 12 11 1 38 1v-98l-1-23v-24l3-35 4-43 2-21 1-1 2-13 2 2 2 24 2 61 4 44v53l-2 40v33h48l-4-82-1-6-2-27-1-7v-44l1-1 4-53 1-19v-36l-3-19-2-5-9 6-1-2 9-7 10-14 8-11 16-21 11-14 7-11v-8l-4-7-11-9-6-3-2 5-6 8-1 6 8 4 3 2-7 8-22 32-6 11-5 1-4-10-3-8-25-4h-29l-10 2-2 1-1-3v-29l-10-1 5 6v7l-4 8-2 2h-8l-9-4-12-9-14-10-13-10-11-9-42-1v-2h-8v-7l6-3 18-1 4-2-2-5-1-1v-5l4-1 5 5 14 5 11 7 13 10 26 17 7 4 1-8-2-4 1-6 12-30 4-4 11-5 14-4 6-4 1 1 3-9-9-2-7-4-5-8-1-5v-24l-3-9v-9l3-5 3-3 7-4 5-4 13-4h11l5 1 19 1 8 5 2 4v9l-2 4h-3l-2-5h-4l4 4 1 6-7 2 7 1-3 6-2 3-9 1-5-1-1 2 8 1 4 5-1 5-2 1-3 5-5 3 1 4-2 2-4-1-1-3-2-1 1 5-4 5-11 5-2 1-1 3 16-4h4l1-5 10-7 7-12 2-4 130-1 7-2 3-4 1-84z" fill="#7E46D2"/>
<path transform="translate(67,328)" d="m0 0h11l38 12 16 8 14 8 6 4v2l4 2 14 10 16 12 11 9 14 12 15 11 11 7v2l5 2 9 4 36 4 18 1 16 4 10 4 20 12 8 4 16 6 16 7 6 2 1 89 2 4 5 2h154l5-2 2-3 1-110h1v6l20 1 2-1v20h19v1h-18l-1 17-2 25-4 109-2 55-2 35-3 59-1 10 7 1 1 5-1 8-4 3-1 3-1 19-2 6-27 12-29 11-10 4-2 2-33 8-40 8-62 15-3 1h-369v-559l19-4 43-8z" fill="#7E46D3"/>
<path transform="translate(635,252)" d="m0 0h9l14 4 5 8 4 11v9l-5 4 1 11v12l-3 10-4 6-11 4h-2l3 7 4 7v2h11l13 5 6 5 4 10 8 36 1 15-8 18-2 4-4-1-2-2v7h3l-2 9-5 12-3 7 1 5 7 1v2l-3 2 5 1 10 61 7 56 3 27v30l-2 26-2 55-3 53-1 5-7 1-1 6-5-2-11-1h-8l-1-4-10-2 1-34 4-85 2-29-1-18-12-73-6-32-2 7-3 38-4 53-2 31-4 98-3 44-1 3-10 1-1 5-10-3-13-1-1-3-7-1-1-2 2-25 3-66 1-12 5-141 2-38 3-27-1-1v-20l3-15 2 1 14-6 9-3 1-4-4-1 1-4h11v3 5l9 3 8 1 5-2v-9l-1-5-16 2-17 1-3 1 1 3-13 1-3 3-26 2h-10l-8-3-3-5v-12l5-12 7-15 8-15 3-9-129-1-5-3-2-3v-103l4-4 3-1h181z" fill="#404246"/>
<path transform="translate(996,397)" d="m0 0 4 1 12 9 5 6 1 3v8l-7 11-13 16-14 19-9 12-10 14-7 6 4-2 5-3 4 16 1 9v36l-4 61-1 11-1 1v44l2 16 1 18 1 6 3 62v20l-5 1h-43l-1-1v-33l2-40v-53l-4-44-2-61-2-24-1 2-1 9-1 1-2 21-4 43-3 35v24l1 23v92l-1 6h-38l-9-1-2-1v-12l3-32 5-57v-37l-2-27v-92l2-25 4-20 7-19 3-7 2-8 2-4 6-4 16-1h21l25 4 3 5 4 13h5l1-4 6-10 16-23 8-11 3-3-10-5-1-4 4-7z" fill="#F0F0F0"/>
<path transform="translate(609,483)" d="m0 0h71l10 61 7 56 3 27v30l-2 26-2 55-3 53-1 5-7 1-1 6-5-2-11-1h-8l-1-4-10-2 1-34 4-85 2-29-1-18-12-73-6-32-2 7-3 38-4 53-2 31-4 98-3 44-1 3-10 1-1 5-10-3-13-1-1-3-7-1-1-2 2-25 3-66 1-12 5-141 2-38 3-27z" fill="#414347"/>
<path transform="translate(976,369)" d="m0 0h176l6 3 3 3 1 133-3 7-5 3-8 1h-167l-7-3-2-3-3-14h-2l-8 5-1-2 9-7 10-14 8-11 16-21 11-14 7-11v-8l-4-7-11-9-5-4-3-5-11-9-11-8-1-2z" fill="#424347"/>
<path transform="translate(552,450)" d="m0 0 9 1 5 3 1 2v111l-5 5-3 1h-154l-6-3-2-4v-109l4-5 2-1z" fill="#47474C"/>
<path transform="translate(784,156)" d="m0 0h21l13 3 14 7 9 7 9 10 6 10 6 16 2 13v14l-4 20-7 16-9 14-11 12-12 9-16 8-14 4-6 1h-15l-14-3-16-8-8-6-7-7-9-14-5-14-2-10v-23l4-17 7-16 4 1 28 17 16 10-5-5-11-8-17-11-17-10-9-6-9-4 5 5-9 8-5 1-8-3 5-5 6-5 1-5h2l-2-13v-7l5 1 10 7 5 6 1 5 1 8 6 5 3-1 8-10 7-7 14-10 16-7z" fill="#616FCE"/>
<path transform="translate(937,192)" d="m0 0h149l6 4 2 7v110l-4 5-7 2-130 1-6 12-5 6-6 4h-2l-1 5-14 4h-6l1-4 14-7 2-3v-5l3 1 1 3 4-1v-4l-2-1 6-2 6-9-2-5-9-3 1-3 11 1h3l4-8-7-1 1-2 6-1 1-3-2-1v-4l-5-2 4-1 2 1 1-2 1 7h3l1-4v-9l-3-5-6-3-19-1-6-2v-71l6-5z" fill="#404247"/>
<path transform="translate(642,270)" d="m0 0h11l5 3 3 8 2 18v12l-3 10-4 6-11 4h-2l3 7 4 7v2h11l13 5 6 5 4 10 8 36 1 15-8 18-2 4-4-1-2-2v7h3l-2 9-5 12-3 7 1 5 7 1v2l-3 2-57 1h-28v-20l3-15 2 1 14-6 9-3 1-4-4-1 1-4h11v3 5l9 3 8 1 5-2v-9l-1-5-16 2-17 1-3 1 1 3-13 1-3 3-26 2h-10l-8-3-3-5v-12l5-12 7-15 8-15 4-10 6-11 8-6 10-3 7-1h9l1-6 2-3 3-1 2-12-7-7-1-4h3l1-2h-6l-4-3-1-9 2-3 8-1 2 9 3-1 4-18 8-11 5-4z" fill="#E9C384"/>
<path transform="translate(918,269)" d="m0 0h11l5 1 19 1 8 5 2 4v9l-2 4h-3l-2-5h-4l4 4 1 6-7 2 7 1-3 6-2 3-9 1-5-1-1 2 8 1 4 5-1 5-2 1-3 5-5 3 1 4-2 2-4-1-1-3-2-1 1 5-4 5-11 5-2 1-1 3 16-4h4l6 14v2l19 4 11 3 19 14 9 8 1 4h-2l-2 5-6 8-1 6 8 4 3 2-7 8-22 32-6 11-5 1-4-10-3-8-25-4h-29l-10 2-2 1-1-3v-29l-10-1 5 6v7l-4 8-2 2h-8l-9-4-12-9-14-10-13-10-11-9-42-1v-2h-8v-7l6-3 18-1 4-2-2-5-1-1v-5l4-1 5 5 14 5 11 7 13 10 26 17 7 4 1-8-2-4 1-6 12-30 4-4 11-5 14-4 6-4 1 1 3-9-9-2-7-4-5-8-1-5v-24l-3-9v-9l3-5 3-3 7-4 5-4z" fill="#B3568D"/>
<path transform="translate(971,515)" d="m0 0 8 3 10 1-3 1 9 42 6 14 12 22 10 18 3 3 8 18 12 22 9 17 10 21 5 10 1 12-2 22-2 12-5 6-17 11-15 6-27 7-8 1h-22l-1-7-3-62-1-6-2-27-1-7v-44l1-1 4-53 1-19z" fill="#7E46D2"/>
<path transform="translate(609,483)" d="m0 0h21l14 3 1 4-5 5-7 8-5 11v8l-2 8-2 27-3 38-1 14-3 22v9l-3 12-1 16 1 7-1 20v15l-2 16-1 18 1 11v9l-3 30h2l-3 9-10-3-13-1-1-3-7-1-1-2 2-25 3-66 1-12 5-141 2-38 3-27z" fill="#414347"/>
<path transform="translate(789,136)" d="m0 0h18l18 4 13 5 10 6 9 7 8 6 8 10 2 4 1 6 5 16 2 9 1 11v11l-3 25-5 15-8 15-8 11-11 13-11 9-14 9-16 7-15 4-9 1h-16l-17-3-13-5-14-10-13-13-9-13-6-14-3-9-2-14v-21l2-14 5-15 1-2h4v-2l12-6 6 2-8 20-3 14v23l4 17 7 14 8 10 9 8 16 8 10 3 6 1h15l18-4 16-8 10-7 10-9 9-12 8-15 5-16 2-12v-14l-3-16-5-13-6-10-11-12-13-8-14-5-6-1h-21l-16 4-16 8-13 10-7 7-7 9-5-2-4-4-1-10 7-9 9-9 14-10 16-8 16-5z" fill="#616ECF"/>
<path transform="translate(552,450)" d="m0 0 9 1 5 3 1 2v111l-5 5-3 1h-154l-6-3-2-4v-11l5 1 2-4 2 1v2l3-3 9 2h4v-2l119-1-118-1v-1h41l-1-7h10v-26l2-2 7 1v-10l-1-4 3-5 2 1-1 45h10v-43l2-1 1 11v32l-2 5-1 1-8-1h-2v3h13l1-7v-18l-1-24 5-1 2-5 1-17 2-1v66l3-1h7v-66l5-1v-3h3v-2l6-1 8-11 2-4-4-2z" fill="#3C3E45"/>
<path transform="translate(635,252)" d="m0 0h9l14 4 5 8 4 11v9l-4 3h-2l-3-12-3-3-2-1h-11l-7 4-8 11-4 18-4 1-2-9-8 2-1 2 1 9 3 2 6 1-1 3-3-1 4 6 5 5-2 12-4 2-3 6-1-2v-7l-4-11-2-11-8-13h-2l-2-8v-7l4-4v-2l-2 4h-3v-4h-27l-5-4v7h-9v-9l-5 2-7-1-5-1h-11l8 16-1 2-3-1-3-4-5-5-9-6-7-3-9-2-1 2h-9l-15 5-4 2h-3v2h-2l-2 4-4 5-2 8v19l2 7v7l-5 2v7l-2 3 1 2-4 10 2 1v2l9 2 2 1h29l8-1 2 1 1-2 4 1 11-1 4-2 5 1v-2l3-1h15l2-1-6-1-6 1-7-2-1-4 4-4 4-2-1 8 10-5h9l2 1 1-4 1-6h8v9h-8v6h9l4-4-1-6 3 1v2l18 1 2 1v5l-7 5-6 11h-131l-5-3-2-3v-103l4-4 3-1h181z" fill="#504C4C"/>
<path transform="translate(784,156)" d="m0 0h21l13 3 14 7 9 7 9 10 6 10 6 16 2 13v14l-4 20-7 16-9 14-11 12-12 9-16 8-14 4-6 1h-15l-14-3-16-8-8-6-7-7-9-14-5-14-2-10v-23l4-17 7-16 4 1 12 7-1 6-5 14-1 6v17l3 13 7 13 6 7 10 7 14 5 14 1 14-3 12-5 11-8 9-9 8-13 5-14 2-12-1-15-4-13-6-11-10-10-12-6-11-3h-14l-13 3-14 7-12 11-6 7-4-1-12-7 1-4 8-10 7-7 14-10 16-7z" fill="#EFEFEE"/>
<path transform="translate(658,349)" d="m0 0h9l10 5 4 5 4 12 5 23 2 9 1 15-8 18-2 4-4-1-2-2v7h3l-2 9-5 12-3 7 1 5 7 1v2l-3 2-57 1h-28v-20l3-15 2 1 14-6 9-3 1-4-4-1 1-4h11v3 5l9 3 8 1 5-2v-9l-1-5h-5l2-2v-3l-7-1 1-4 9-2-7-1 1-2 11-3v-2h11v-2l-7-1-7 2-2-2 7-4 1-4-5-6-1-7 6-8 2-8 3-6v-5l-4-3z" fill="#DEA95C"/>
<path transform="translate(996,397)" d="m0 0 4 1 12 9 5 6 1 3v8l-7 11-13 16-14 19-9 12-10 14-7 6 4-2 5-3 4 16 1 9v36l-4 61-1 11-1 1v44l2 16 1 18 1 6 3 62v20l-7-1-4-4-1-2-1-38-1-54-3-16-3-21v-32l5-65 1-28 1-22-1-3-5-1-9 3h-7l-5 1-5-4-3-4 1-3 2-1-4-2 1-4 8-6 7-5 1-4-13 1-1-5 7-2h26l1-2h2l1-4 6-10 16-23 8-11 3-3-10-5-1-4 4-7z" fill="#DFDEDF"/>
<path transform="translate(630,483)" d="m0 0h50l10 61 7 56 3 27v30l-2 26-2 55-3 53-1 5h-4l2-54 4-83 1-14v-28l-2-19-3-15-1-1-6-46-5-23-5-12-6-10v-2l-9 1-5 4-4 15-2 6-1 11v36l-2-2-7-37-2 7-3 38-4 53-2 31-4 98-3 44-1 3h-9l1-3h-2v-11l2-20v-14l-1-6 1-17 2-17v-16l1-19-1-7 1-15 3-14 1-16 2-13 2-28 2-24 2-27 2-11 1-8 6-11 7-8 3-2v-4l-14-2z" fill="#292E4B"/>
<path transform="translate(486,272)" d="m0 0h9l1 1v34h38v8h-1v-5l-34 1 12 18 5 7v2l5-3 6-8 3-8 3-1-1 8-5 9-1 2 4-3-2 9-2 4h-2v5l8 2 8-1 5 1-4 3h-18v2l3 1-10-1-2 2-12 1h-4l-16 1h-23l-11-4v-2l-3-1 4-11v-3l1-1v-8l5-1v-7l-2-7v-19l3-10 6-7h2v-2l14-6 5-1z" fill="#444244"/>
<path transform="translate(1014)" d="m0 0h12l1 19v18l1 19 3 24 3 9 21 21 15 7 15 5 6 3 26 5 12 5 12 9 18 14 40 40 20 26 11 16 14 18 12 16 7 9 7 7 19 13 18 13 14 8 14 4 22 1 9-1 6-4 7-8 5-8-2-1 16-2 18-2h8l10 3 14 9 14 12 7 8 13 15 13 14 9 11 7 6 13 8 18 10 19 9 1 1v-42l-5-5-19-12-9-7-7-9-6-14v-10l3-5 10-8 11-8h30l30 2v3l-47-2h-9l-10 5v2l-8 7-4 4-1 8 3 9 6 10 4 5 19 12 13 8v42l-1 11-19-9-23-13-16-10-10-9-7-7-9-11-9-10-9-11-8-9-14-11-12-7-3-1h-16l-24 2-2 6-7 10-8 6-15 2h-10l-14-2-11-4-14-8-14-10-16-11-10-8-14-14-11-15-11-14-12-17-10-14-4-5v-2h-2l-10-13-10-9-15-14-11-12-8-7-14-11-11-7-18-4-25-7-25-10-9-7-9-8-7-10-4-11-2-9-3-26-1-6-1 2-2 23v14l8 27 8 20 8 16 7 10 11 17 6 11 7 9 2 4h-6l-5-4-6-9-8-14-14-23-11-21-8-21-5-20v-16l2-23 1-29z" fill="#8655D5"/>
<path transform="translate(937,192)" d="m0 0h148v6l-9 5-1 1v9l-5 5h-118l1 4h68l5 2 1 3-1 2h-73v-3h-5l-2-2-7 1-3 7-1 13-1 1-1 9-2 4 1 5-4 4v-70l6-5z" fill="#524E4F"/>
<path transform="translate(918,269)" d="m0 0h11l5 1 19 1 8 5 2 4v9l-2 4h-3l-2-5h-4l4 4 1 6-7 2 7 1-3 6-2 3-9 1-5-1-1 2 8 1 4 5-1 5-2 1-3 5-5 3 1 4-2 2-4-1-1-3-2-1 1 5-4 5-11 5-2 1-1 3 12-3h7l2 8-11 7-7 11-4 3-1-10v-14l1-4-9-2-7-4-5-8-1-5v-24l-3-9v-9l3-5 3-3 7-4 5-4z" fill="#E0AA5B"/>
<path transform="translate(418,577)" d="m0 0h12l18 7 11 7 8 8 6 4v2l4 2 7 6 5 8 8 37 9 54 4 19 2 6 2 9v17l-3-1v6l-9 14-9 9-13 10-9 3-13 3-16 2-10 2-18 4-10 4-16 5-35 5-14 4-17 5-20 7-17 4-20 2h-18l-24-5-31-3-11 1-10 2-8 4-13 4-16 2-16 3h-35l-12 3-18 8-12 8-14 14-2 3h-2l-1 5h-7l7-11 7-8 11-10 11-7 11-5 9-3 6-1 44-1 18-3 32-9 10-2h18l26 3 23 3h16l17-2 16-4 12-4 10-4 18-5 45-9 26-8 16-4 25-4 24-6 11-6 11-9 8-10 5-9-1-13-7-35-8-39-6-31-5-20-4-7-10-9-11-10-11-7-26-11z" fill="#8655D5"/>
<path transform="translate(784,196)" d="m0 0h13l11 4 9 7 6 10 3 11v10l-3 12-6 11-7 8-11 7-8 3-12 1-12-3-9-6-7-9-4-11v-17l4-12 2-1 15 9-1 12 3 9 5 5 6 2 10-1 6-4 6-7 2-7v-8l-4-8-5-4-3-1h-9l-14 7-14-9 2-5 9-8 10-5z" fill="#EFEEEE"/>
<path transform="translate(472,261)" d="m0 0h10l15 2-2 2-5 2-1 2 5 1v1l-14 4-9 3-4 2h-3v2h-2l-2 4-4 5-2 8v19l2 7v7l-5 2v7l-2 3 1 2-4 10 2 1v2l9 2 2 1h29l8-1 2 1 1-2 4 1 11-1 4-2 5 1v-2l3-1h15l2-1-6-1-6 1-7-2-1-4 4-4 4-2-1 8 10-5h9l2 1 1-4 1-6h8v9h-8v6h9l4-4-1-6 3 1v2l18 1 2 1v5l-7 5-6 11h-131l-5-3-2-3v-86l3-3 3-1 3 2 2-4 9-4 8-2z" fill="#404247"/>
<path transform="translate(976,369)" d="m0 0h176v7l-8 6-5 8-9 3-5-1-1 3-4 2h-8l-2-1 1-4-1-2-11 1-12 3h-8l-6-1-11 1-5 1-9-3-8 1-15 1-8-4-5-3-9-2-6-4-17-5-4-2-1-4z" fill="#4E4A4B"/>
<path transform="translate(1095,216)" d="m0 0 3 4 8 17 9 21 9 16 9 11 7 9 12 14 11 14 13 18 10 13 10 15 16 36 4 13 3 16 10 74 4 20 12 37 3 14 1 10v9l-3 15-14 35-1 2-1 15 2 26 3 19 6 23 5 18 6 25 5 20 5 10 12 7 23 11 23 13 22 13 23 13 12 11 10 11v2h2l9 11 2 3h-9l-8-11-3-4v-2h-2l-8-10-8-8-35-21-17-10-22-12-22-10-8-6-5-10-5-18-7-31-10-35-4-23-2-21v-16l4-15 7-19 4-5 4-15v-15l-6-25-12-38-4-17-3-21-3-31-4-28-3-10-12-26-4-8-1-7-2-1-4-5-16-24-11-16-11-13-9-11-12-13-10-13-8-14-4-12-7-17-3-4z" fill="#8655D5"/>
<path transform="translate(555,451)" d="m0 0h6l5 3 1 2v102l-2 9-3 3-2 1h-125l-1-3 4-5h11l9-4 3 1 13 1 11-1 17 1 14-1h12l5-1 1-3h7l3-2 4-3h5l1-8-3 7-1-3v-25l-2-4v-14h-1l-1-17v-10l3-15 4-5 2-5z" fill="#444244"/>
<path transform="translate(1018,426)" d="m0 0 3 3 3 5 2 5 4 4-2 5-8 9-9 11-11 12-3 2h-5l1 2 143 1v3l-2 1-117 1-11 4-5 4-4 4-4 10v3l7 1h152l6-2 2-9 1-14h1v17l-3 7-5 3-8 1h-167l-7-3-2-3-3-14h-2l-8 5-1-2 9-7 10-14 8-11 16-21 11-14 5-7z" fill="#191825"/>
<path transform="translate(731,400)" d="m0 0h17l-9 23-8 1v4l12 2-1 3-6-1-9-1v4l13 2-1 3-9-1-5-1v5h-3v5h4l1-5h9l-2 4-4 3h-3l-2 6-9 20-1 1h-44v-2h2l3-9 13-31 9-21 5-1 10-7 3-5z" fill="#292D4A"/>
<path transform="translate(996,397)" d="m0 0 4 1 12 9 5 6 1 3v8l-7 11-13 16-14 19-9 12-10 14-7 6 4-2 5-3 1 6-1 2-10 1-12 7h-7l-5 1-5-4-3-4 1-3 2-1-4-2 1-4 8-6 7-5 1-4-13 1-1-5 7-2h26l1-2h2l1-4 6-10 16-23 8-11 3-3-10-5-1-4 4-7z" fill="#EEDBBD"/>
<path transform="translate(905,513)" d="m0 0 8 1 6 7 3 9-1 5-3 1-2 17-1 1-2 21-4 43-3 35v24l1 23v92l-1 6h-8l-4-5 1-12 3-25 1-24v-32l-5-38v-14l8-48 2-32 1-19-3-9-4-10v-10l2-4z" fill="#E0DFDF"/>
<path transform="translate(584,799)" d="m0 0h13l8 3 2 1v2l-13 1-7 1 2 6 5-2h12l5 2 5 8 2 7v7h-2l-2 7-1 1h-35l-5 4-31 13-13 5-30 10-11 4-23 4-44 11-6 2-12 3-2 1h-32l3-2 62-15 45-9 28-7 3-3 20-7 27-11 16-7h2l1-6 1-19 3-5 3-1v-8z" fill="#8655D5"/>
<path transform="translate(642,270)" d="m0 0h11l5 3 3 8 2 18v12l-3 10-4 6-11 4h-2l2 6v5l-5 4-6-3-5-4-9-1 2-13-7-7-1-4h3l1-2h-6l-4-3-1-9 2-3 8-1 2 9 3-1 4-18 8-11 5-4z" fill="#E6C083"/>
<path transform="translate(604,486)" d="m0 0 11 1 2 4v7l-2 12-3 37-3 49-3 28-9 6-3-1-2-13-1-33v-23l2-29 1-38 3-6z" fill="#464C55"/>
<path transform="translate(277)" d="m0 0h5l-1 4-6 9h-2l-2 4-7 8-4 2-13 1-17 4-22 2-46 11-32 5-10 1h-10v11l-3 22v10l4 6 7 7 8 7 13 12 9 10 9 16 8 18 12 30 9 12 13 16 11 13 10 15 16 26 4 5 10 6 27 11 17 8 19 12 11 6 15 10 17 9 14 9 13 5 28 1 6-1 11-3 2 2 1 2-13 4-20 1-18-2-17-8-27-16-18-11-15-10-26-14-34-14-8-6-10-14-8-14-11-16-10-11-8-10-12-14-7-12-10-24-8-21-6-12-9-10-13-12-15-15-4-7-1-8 3-25 1-14 21-2 26-4 44-10 17-4 20-2 19-5 7-3 9-10z" fill="#8554D4"/>
<path transform="translate(42,576)" d="m0 0 6 1 17 11 16 11 12 9 13 10 10 6 11 5 16 6 17 8 19 10 12 7 10 9 8 9 8 10 16 16 8 7 2 4h2v12l-2 27h-5l-1-1-3 1-16 2-6 5-23 5-38 7-14 1h-51l-16 4-10 4-26 9-13 4-15 2h-6v-5l22-5 25-7 16-5 8-3 11-2h61l15-2 30-7 18-4 9-5 14-2h10l1-31-7-8-25-25-8-10-9-9-15-10-15-8-17-8-16-6-22-10-10-8-11-10-13-10-19-12-9-5-10 3-18 7-9 10-6 9h-1v-9l7-9 5-4 24-9z" fill="#8655D5"/>
<path transform="translate(77,423)" d="m0 0 10 3 16 4 10 5 10 9 12 11 11 9 13 13 20 28 9 10 10 8 22 14 16 12 13 11 14 10 16 8 8 2h27l17-4 23-6 19-3h13v5h-11l-27 4-20 6-14 2h-30l-13-5-17-10-13-9-14-12-12-9-22-14-16-13-12-14-10-14-9-10-15-16-16-15-10-6-15-5-10-2-5 1-16 8-13 7-16 13-20 14-8 5h-2v-8l11-6 16-12 11-9 13-8 16-8z" fill="#8655D5"/>
<path transform="translate(393)" d="m0 0h6l-2 6-9 17-6 21-6 36-3 9-1 5v11l6 35 8 14 13 16 9 13 5 6 3 2 21 3 41 4 33 5 34 2 16 2 23 6 12 5 11 5 30 10 29 7 16 3h8l1 1v5l-1 1h-9l-30-6-23-6-20-8-8-5-20-8-23-6-16-2-24-1-49-7-37-4-16-3-5-3-8-8-10-13-15-20-4-9-5-23-2-13v-8h2l-1-4 5-28 4-21 6-20 6-16z" fill="#8655D5"/>
<path transform="translate(782,375)" d="m0 0 4 1 4 4 14 5 11 7 13 10 26 17 7 4 1-7 4 2 7 8 3 7-2 9-3 3-9-1-7-4-11-8-14-10-13-10-11-9-42-1v-2h-8v-7l6-3 18-1 4-2-2-5-1-1v-5z" fill="#EEDBBD"/>
<path transform="translate(1040,246)" d="m0 0h8l9 3 7 6 5 11v10l-3 8-7 8-9 4h-12l-10-5-6-7-3-7v-12l4-8 5-6 8-4z" fill="#BFADA9"/>
<path transform="translate(917,540)" d="m0 0 2 2 2 24 2 61 4 44v18l-7-1-13-5-2-6v-24l3-35 4-43 2-21 1-1z" fill="#8149D0"/>
<path transform="translate(986,520)" d="m0 0 5 1 3 7 6 28 6 16 9 17 10 18 12 23 9 16 8 16 5 13 10 19 4 10 2 16-1 17-3 18-4 6-9 7-12 7-8 4-25 7-14 3-8 1h-14l-2-1-1-5 1-1h20l16-3 21-6 13-5 14-9 6-5 2-7 2-15 1-15-1-11-8-16-9-19-10-19-12-22-5-12v-2l-3-1-13-24-12-22-4-12-7-34z" fill="#8655D5"/>
<path transform="translate(974,246)" d="m0 0h7l9 3 8 7 4 7 1 4v8l-4 10-5 6-7 4-4 1h-11l-9-4-2 6-2-1v-4h2l1-4v-9l-3-5-6-3v-7l5-10 7-6z" fill="#DDA85D"/>
<path transform="translate(67,328)" d="m0 0h11l38 12 16 8 14 8 6 4v2l4 2 14 10 16 12 11 9 14 12 15 11 11 7v2l5 2 9 4 36 4 18 1 16 4 10 4 20 12 8 4 16 6 16 7 5 1v6l-11-3-20-9-16-9-6-2-14-8-10-5-13-3-27-3h-7l-21-3-6-2-26-15-14-10-14-11-28-24-18-13-15-10-23-11-31-10-29 6-13 3-9 2-20 2h-5v-3l19-4 43-8z" fill="#8655D5"/>
<path transform="translate(668,799)" d="m0 0 11 1 3 2 8 2v3l-3 1-1 2 2-1h6l-2 1v2l9-1-1 4 4-3 10 1 4 2 5 8 2 8v4h-17l-26-1-3-1-18-1-6-1 1-18 2-4 1-8 1-1z" fill="#EFEEEE"/>
<path transform="translate(1075,436)" d="m0 0 3 1-1 2-1 44h-17l-1-22-1 22h-18l-1-32-1 32h-45v-1l6-1h11l11-12 18-22 4 1 13 11 10-11 9-11z" fill="#3F4147"/>
<path transform="translate(869,801)" d="m0 0h16l8 4 4 8v28l-3 1v2l-2 1h-50v-8l4-8 6-7 9-1 9 2 1-3h4l-1-3 4-2-5-2-10-1 3-5 2-1z" fill="#E0E0DF"/>
<path transform="translate(890,221)" d="m0 0h1l1 9v9l-2 16-6 20-8 16-9 13-11 12-10 9-18 11-15 6-12 3-7 1h-19l-15-3-11-4-15-8-1-2 5 2 13 5 17 3h16l14-2 18-6 15-8 12-9 8-7 9-11 10-15 7-15 5-17 3-22 3-3h2z" fill="#282D4A"/>
<path transform="translate(937,801)" d="m0 0 18 1 5 3 4 9 1 5v20l-2 5-5 3h-28l-16-1-1-1 1-10 6-10 2-2h15l5 2-1-3h4v-5h3v-2l-17-2 5-6z" fill="#E0DFDE"/>
<path transform="translate(900,287)" d="m0 0h7l9 6 3 5v2h2l1 2 2 21 3 10-9 7-10 3h-11l-4-3-3-9v-16l1-1 1-19 3-5z" fill="#EAD6B7"/>
<path transform="translate(1126,399)" d="m0 0 3 1-5 18-1 4-4-2-2-2-6 8-10 11-9 11-4-2-11-9-3 1-9 11-8 9-2 2-9-8-5-4-3-1-2 4-13 15-12 14-2 2h-11l6-7 9-10 11-14 9-10 5-6 6 4 8 7h3l7-8 9-10 2-3 4 1 10 9 3 1 13-15 6-7h2l-5-6z" fill="#DDA85C"/>
<path transform="translate(804,587)" d="m0 0h15l9 2 18 6 17 5v6l-17-5-23-9-6-1h-9l-11 4-7 6-16 32-6 8-11 10-20 12-7 6-8 15-8 22-5 26-4 27-4 8-6 11h-1v-8l4-10 5-36 4-20 6-16 9-20 7-8 19-11 12-9 6-7 13-24 7-11 5-5 6-4z" fill="#8655D5"/>
<path transform="translate(642,498)" d="m0 0h4v9l-2 19 1 24 1 12-2-2-7-37-2 7-3 38-4 53-2 31-4 98-3 44-1 2h-3v-20l1-5v-20l1-1 1-23v-21l1-13v-19l1-14 1-18 1-4 1-20 1-3 2-35 2-21 1-23 4-27 5-8z" fill="#181726"/>
<path transform="translate(486,272)" d="m0 0h8v35l-12 13-12 12-3 1-6-10-3-10v-9l3-10 6-10 8-7z" fill="#B4568E"/>
<path transform="translate(630,483)" d="m0 0h50l10 61 7 56 3 27v30l-2 26-2 55-3 53-1 5h-4l2-54 4-83 1-14v-28l-2-19-3-16-3-32-3-17-2-12-7-24-3-9-3-2-13-1-26-1z" fill="#191827"/>
<path transform="translate(1037,245)" d="m0 0h8v1l-12 3-7 5-5 8-1 3v12l1 4 1 18 9 5v2l-4 1v-2l-5-1-5-5-2-4-3 1-7 8v3l12 3 2 1-7 2-10 1-3 1v2h9v1h-41l-1-5 1-9h2v-2h10l13-3 7-5 3-6 2-8v-13h-2l1-5 5 5 4 6 2 1 2-10 1-7 5-5 12-6z" fill="#454244"/>
<path transform="translate(522,451)" d="m0 0h16l5 1-5 10-6 7-4 1-2-1v2h-3v3l-5 1-10-2-5-4-1-4h-16l-3-1-4 1-1 2-11-2v3l-3-1-7-7 2-5 9-1v-2z" fill="#4E4A4A"/>
<path transform="translate(1115,423)" d="m0 0h1v60h19v1h-143v-1h45v-32l2-1v33h18v-22l2-3v25h17v-44l2-1 1 3 8 7 5 3h3l1-6 2-2v40h16v-50z" fill="#7A6A74"/>
<path transform="translate(784,217)" d="m0 0h9l7 4 4 5 2 5v8l-3 9-8 8-8 3-10-1-6-4-4-7-1-8 2-9 4 2 9 6 6 1 1-5-5-2-11-7 5-5z" fill="#616FCE"/>
<path transform="translate(632,262)" d="m0 0 4 1-9 6-16 17-2 1 10-2 8-6 9-11 3-2 8 1 8-3 6 1 4 3 2 7v9l-4 3h-2l-3-12-3-3-2-1h-11l-7 4-8 11-4 18-4 1-2-9-8 2-1 2 1 9 3 2 6 1-1 3-3-1 4 6 5 5-2 12-4 2-3 6-1-2v-7l-4-11-2-11-8-13h-2l-2-8v-7l2 1 5-3 3-3 2 1-4 5 8-4 9-10 7-8z" fill="#454244"/>
<path transform="translate(557,451)" d="m0 0 6 1 4 4v102l-2 9-1 2h-2l-1-5-3-1-3-3-7 2h-2l-1-5 6-5 9-2 1-11h1l1 10-1 3h2l-3-39-1 4-2-9-3-16-2-4v-18l1-10 3-5z" fill="#414347"/>
<path transform="translate(584,799)" d="m0 0h13l8 3 2 1v2l-13 1-7 1 2 6 5-2h12l5 2 5 8 2 7v7l-37-1-4-2v-18l3-5 3-1v-8z" fill="#EEEEED"/>
<path transform="translate(1129,399)" d="m0 0h1v10l-5 16-2 1-6-2v-2h-2l-1 61h-16l-1-38-2 6-4 1-10-9-3-2v-3l4 2 8 7 4-2 9-11 10-11 3-6 7 5 1-8 4-14z" fill="#414347"/>
<path transform="translate(553,337)" d="m0 0h8v9h-8v6h9l4-4-1-6 3 1v2l18 1 2 1v5l-7 5-5 9h-29l-10-3-19-2-3-2 3-1 5 1v-2l3-1h15l2-1-6-1-6 1-7-2-1-4 4-4 4-2-1 8 10-5h9l2 1 1-4z" fill="#454244"/>
<path transform="translate(496,271)" d="m0 0 12 2 11 6 8 9 5 13v6h-36z" fill="#636CCF"/>
<path transform="translate(946,390)" d="m0 0 3 2v2l5 2 8 6 11 7 7 4 6 2 6 4 6 2-6 8-10 14-13 19-2-1v-49l-11-8-1 6h-1v-5h-2v2l-7-2-1-7z" fill="#181623"/>
<path transform="translate(956,404)" d="m0 0 5 2 7 6v51l-5 10-5 1-4-10-3-8-1-5 1-1v-26z" fill="#7E46D2"/>
<path transform="translate(598,365)" d="m0 0 5 2 5 8v23l-2 9-4 5-4 1-3-1 1-14-3 6-4 4-1 5-2 1h-11l1-8 9-19 8-16 3-5z" fill="#E0AA5B"/>
<path transform="translate(77,487)" d="m0 0 4 2 11 14 13 16 10 15 10 17 12 19 5 6 15 7 18 7 27 14 24 14 15 10 16 8 18 6 16 3h27l17-3 27-8 18-6h15l19 3 7 4 28 28 4 9 6 26 3 16v14l-2 5-1-3 1-4v-9l-7-34-4-15-7-9-21-21-6-4-17-3-7-1h-10l-40 13-13 3-8 1h-32l-16-3-20-7-16-9-13-9-16-9-22-12-19-9-20-8-8-6-8-11-14-23-11-17-9-12-11-14-6-7v-2l-19 11-3 1-12-1-11 9-23 12-9 5-2-1 8-5 22-11 13-10 2-2 13 1 10-5z" fill="#8655D5"/>
<path transform="translate(733,451)" d="m0 0 7 2 14 9 5 5 2 4-4 10-8 15-4 8-2 17-5 10-8 11-11 11-22 16-3 3-1-9 9-6 12-9 9-8 11-15 3-10 1-14 12-22 2-4-1-5-12-9-4-5-2-1z" fill="#8655D5"/>
<path transform="translate(695,162)" d="m0 0 5 1 10 7 5 6 1 5 1 8 8 6v2l5 2 11 6 13 8 2 1v2l5 2 9 6 10 5 8 5 1 4-4 2-8-3-9-7-5-5-11-8-17-11-17-10-9-6-9-4 5 5-9 8-5 1-8-3 5-5 6-5 1-5h2l-2-13z" fill="#B4917B"/>
<path transform="translate(1160,384)" d="m0 0h1v121l-2 7-4 4h-72v-1l10-1 2-1h17l8-2 1-3 23-2-4-3 2-2-4-1 1-9h2l1 3 2 2 2 6h4l4-5 3-27 1-24v-30z" fill="#444244"/>
<path transform="translate(51,256)" d="m0 0 16 1 22 4 17 5 11 6 14 11 21 16 11 10 11 9 16 15 11 9 11 8 16 8 15 5 15 3 13 1 19 5 20 7 16 9 21 14 22 14 15 7 18 4 15 2 12-3 20-8 28-16 16-7 11-2h20l12 5 17 8 1 2-10-3-19-9-3-1h-16l-14 3-12 5-23 13-16 8-19 7h-14l-23-5-12-5-12-7-43-28-15-7-26-8-10-2-17-2-16-4-19-8-13-9-14-12-15-14-11-9-11-10-17-13-20-15-11-5-21-6-16-3-15-2z" fill="#8655D5"/>
<path transform="translate(897,451)" d="m0 0h29l25 4 3 5 2 9-4-2-1-1-12-1h-35l-24 2 1-7 2-4 6-4z" fill="#EFEFEF"/>
<path transform="translate(867,299)" d="m0 0h2l-2 5-11 12-10 9-18 11-15 6-12 3-7 1h-19l-15-3-11-4-15-8-1-2 5 2 13 5 4 1v2l11 1h22l15-3 19-7 16-10 14-12 5-5 7-2z" fill="#181726"/>
<path transform="translate(484,496)" d="m0 0 2 1-1 45h10v-43l2-1 1 11v32l-2 5-1 1-8-1h-2v3h56v1h-118v-1h41l-1-7h10v-26l2-2 7 1v-10l-1-4z" fill="#444244"/>
<path transform="translate(494,311)" d="m0 0 5 5 7 11 8 12-3 3-10 3h-12l-12-4-6-4 1-4z" fill="#E0AA5B"/>
<path transform="translate(494,272)" d="m0 0 2 1v34h38v8h-1v-5l-34 1 12 18 5 7v2l5-3 6-8 3-8 3-1-1 8-5 9-4 5-7 3-3 4-11 3h-9l-13-4-7-4-7-7-6-10 1-3 6 10 5-3 17-17 4-5zm0 39-23 23v3l8 5 10 3h12l12-4 1-2-18-27z" fill="#1C1A27"/>
<path transform="translate(641,427)" d="m0 0h7l2 5v7l-4 4-7 1-12-5-1-5 1-2h-11v3l3 1-1 5-24 9v-9l-21 3-10-1-6-3 4-1h10l26-2 3-3 12-1-1-3 4-1z" fill="#4E4A4B"/>
<path transform="translate(655,831)" d="m0 0 24 1 3 1 43 2-4 2-1 6-2 1h-35l-8-1-6 1h-9l-7-1 1-11z" fill="#616ECF"/>
<path transform="translate(869,801)" d="m0 0h16l8 4 4 8v28l-3 1v2l-2 1h-21l-2-4 4-6h2v-2l6-4 6-9 3-6-8-6-7-3h-6z" fill="#C0B2AA"/>
<path transform="translate(701,397)" d="m0 0h47l-1 3-31 2-3 5-10 7-5 2-17 40-8 19h-2l-1 2-1-5 6-15 5-13h-3l-1-9 4 4 3 1 1-4 9-21 5-12z" fill="#626DCF"/>
<path transform="translate(1042,256)" d="m0 0 7 1 6 4 3 5v10l-5 7-4 2h-10l-6-4-4-7 1-9 5-6z" fill="#3E4147"/>
<path transform="translate(612,389)" d="m0 0 10 1 21 6 5 1-2 3-3 1-1 3-3 3 3 2h-2l1 3-1 1 11 1-3 2-9 2-1 3 3 1-3 2h-9l-12-1-5-1v-4l-2-1 10-7 12-6h5l-1-2-24-8z" fill="#F0DDBE"/>
<path transform="translate(1e3 267)" d="m0 0h1l1 5v8l-3 11-4 5-9 5-10 2-10-1v2h-2v13l95 1v1h-109l-1-4 1-2h-5v-1l7-1 3-11h2l2-6 1-2 9 3h11l8-3 6-5 4-8z" fill="#181623"/>
<path transform="translate(550,800)" d="m0 0 1 2-7 8-17 10-22 11-21 7-20 4-30 5-29 8-26 7-31 8-38 10-25 5-32 5h-55l-14 1-15 6-6 3h-5l4-3 14-6 6-2 9-1 64-1 43-7 30-7 41-11 31-8 31-9 50-9 20-6 32-16 11-7z" fill="#8655D5"/>
<path transform="translate(73,378)" d="m0 0 9 1 27 8 16 8 18 10 14 10 14 11 11 10 8 7 11 11 7 8 13 12 8 7 15 13 14 11 15 10 9 3 31-2 25-4 24 3 26 5 9 3-3 1-29-6-19-3h-13l-17 3-22 2h-16l-11-6-17-12-14-12-12-11-11-9-36-36-14-11-13-10-19-12-19-10-18-6-19-5-32 11-6 2 3-3 16-6z" fill="#8655D5"/>
<path transform="translate(976,256)" d="m0 0 7 1 6 4 3 6v8l-4 6-5 4h-11l-7-6-2-5 1-9 6-7z" fill="#3E4047"/>
<path transform="translate(508,476)" d="m0 0h10v65l-10 1z" fill="#B4568E"/>
<path transform="translate(1353)" d="m0 0h82l-4 3-15 5-18 5h-9l-30-9-6-3z" fill="#8655D5"/>
<path transform="translate(601,425)" d="m0 0 7 1 3 1h11l10 1v1l-17 1-3 1 1 3-13 1-3 3-26 2h-10l-8-3-3-5v-4l7 1h7l11-2h11l7 1z" fill="#D9A65F"/>
<path transform="translate(937,801)" d="m0 0 18 1 5 3 4 9 1 5v20l-2 5-5 3h-15v-6l4-8 5-5 5-12h2v-2h-2l-5-5-6-3-9-1z" fill="#BFB2AA"/>
<path transform="translate(956,258)" d="m0 0 7 3 2 4-1 9 3 6 5 4h11l6-5 2-2 10 3-4 8-8 6-6 2h-11l-9-4-2 6-2-1v-4h2l1-4v-9l-3-5-6-3v-7z" fill="#B3578D"/>
<path transform="translate(642,270)" d="m0 0h11l5 3 3 8 2 18v12l-3 10-4 6-11 4h-2l2 6v5l-3 1-4-7-8-7-5-2 4-1h10l9-2 4-1v-2l5-4 2-5h-2l-2 4-8-1v-3h8v-3h-2v-2h2v-2h2l-3-7v-3h-2l1-9 3-3v-9l-4-2h-9l-10 8h-3l6-7z" fill="#AD8672"/>
<path transform="translate(926,329)" d="m0 0 4 2 1 4-1 5-5 4-9 4-2 1-1 3 12-3h7l2 8-11 7-7 11-4 3-1-10v-14l1-4-9-2-7-4-1-2h13l12-4 6-5z" fill="#B38C75"/>
<path transform="translate(498,310)" d="m0 0h34l-1 9-4 10-8 9h-3l-16-24z" fill="#BFAEA9"/>
<path transform="translate(636,519)" d="m0 0 2 4 9 49v7l-16 1v-12l3-38z" fill="#7E46D3"/>
<path transform="translate(1075,442)" d="m0 0h1v41h-17v-25l4-2z" fill="#404247"/>
<path transform="translate(440,485)" d="m0 0h10v57h-9z" fill="#BDAEAA"/>
<path transform="translate(918,269)" d="m0 0h11l5 1 19 1 7 4v2h-2v6h-3l-7-8-4-1 1 2-9-1-1 3-7 1 12 1-2 4-1 1h-6l-2-1 3 6v6l-4-1-7-11-9-6-11-1 4-4z" fill="#E8C286"/>
<path transform="translate(1e3 266)" d="m0 0 4 1 2 6v13l1 4-2 5-4 2-2 5-11 3-1 6-3-1h-3l-3 3h1l2-1v4l13 1v1h-29l-1-5 1-9h2v-2h10l13-3 7-5 3-6 2-8v-13z" fill="#404247"/>
<path transform="translate(581,614)" d="m0 0 2 2v49l-1 25-2 2-6-16-1-8 1-4h-2l1-12 4-20 3-16z" fill="#8554D4"/>
<path transform="translate(740,340)" d="m0 0 4 2-5 6-5 3-4 1h-18l-34-1-7-3-5-2 2-2h59l11-3z" fill="#8655D5"/>
<path transform="translate(985,212)" d="m0 0 16 1 6-1v2l5-1h33l22 2-1 3h-113v-3l19-2z" fill="#A28C99"/>
<path transform="translate(728,56)" d="m0 0h10l5 4 2 4-1 9-10 16h-1l1-19 1-3-4 1 1 3v17l-4-4-7-13v-8l5-6z" fill="#EDECEC"/>
<path transform="translate(507,476)" d="m0 0h1l1 73h-11l1-7v-18l-1-24 5-1 2-5 1-17z" fill="#444244"/>
<path transform="translate(403,451)" d="m0 0h17l22 1v3l-4 4h-10l-3 2-12-1h-3l-1 8-4 10-4-1-3-7-1-13 4-5z" fill="#4E4A4B"/>
<path transform="translate(700,186)" d="m0 0 9 3 11 7 20 12 22 15 6 5v2l-5-2-21-13-23-14-4-1-12 6-6-1-10-5v-2l7 1 9-7v-2l-3-2z" fill="#484649"/>
<path transform="translate(1017,489)" d="m0 0h116v1l-104 1-10 3-6 5-4 7-5 10h10v1h-14l-7-1-1-4 5-12 9-7z" fill="#292E4B"/>
<path transform="translate(1040,451)" d="m0 0 5 3 10 8h2v21h-18v-31z" fill="#404247"/>
<path transform="translate(632,262)" d="m0 0 4 1-9 6-16 17-2 1 10-2 8-6 9-11 3-2 8 1 8-3 6 1 4 3 2 7v9l-4 3h-2l-3-12-3-3-2-1h-11l-7 4-8 10-9 4-18 2-4 1-1-1v-5l2 1 5-3 3-3 2 1-4 5 8-4 9-10 7-8z" fill="#1C1A27"/>
<path transform="translate(956,286)" d="m0 0 2 3 3 11-2 1-3 10-3 2v8l-6 12-5 6-6 4h-2l-1 5-14 4h-6l1-4 14-7 2-3v-5l3 1 1 3 4-1v-4l-2-1 6-2 6-9-2-5-9-3 1-3 11 1h3l4-8-7-1 1-2 6-1 1-3-2-1v-4l-5-2 4-1 2 1z" fill="#4C4849"/>
<path transform="translate(485,498)" d="m0 0h11l-1 44h-10z" fill="#DDA95E"/>
<path transform="translate(652,418)" d="m0 0 1 4-1 4 2 13-4 7h-2v2l-7 1-15-6-8 1-15 4-7 4h-2l-2 12-1 19h-1v-20l3-15 2 1 14-6 9-3 1-4-4-1 1-4h11v3 5l9 3 8 1 5-2v-9l-1-5h-5l2-2v-3l-6-2v-1z" fill="#B38D75"/>
<path transform="translate(1091,523)" d="m0 0v3l-7 9-6 8-8 13-3 6v7l9 21 10 21 13 23 15 28 18 36 4 16 3 28v12l-1 5h-1l-1-25-3-23-5-16-12-23-13-26-13-23-13-24-11-25-2-7 1-6 5-10 8-12 10-13z" fill="#8655D5"/>
<path transform="translate(669,476)" d="m0 0 9 2v2l-3 2-57 1h-27v-5z" fill="#E4DFD8"/>
<path transform="translate(1058,270)" d="m0 0 1 2 3-1h7l-1 9-6 9-5 4-7 3h-12l-2-2 1-7 2-3h10l5-3 3-5z" fill="#636CCF"/>
<path transform="translate(614,314)" d="m0 0h4v3l14 2 5 2h7l2-1h8l-2 1v2l-8 3-10 1h-7l7 4 8 9 1 4-4 2-6-4-4-3-9-1 2-13-7-7z" fill="#DEA95C"/>
<path transform="translate(1025,255)" d="m0 0 5 2 3 5-3 7 1 8 4 5 3 2-1 11-6-2-7-6-5-10v-12l4-8z" fill="#B3568D"/>
<path transform="translate(464,332)" d="m0 0 5 5 8 7 11 4 5 1h9l11-3 3-4 7-3 7-5-2 5-5 6h-2v2l-8 4h-3v2l-11 4-8 1-9-2v-2l-5-2v-2h-2l-4-4v-2h-2l-1-4h-2z" fill="#3D3F47"/>
<path transform="translate(900,277)" d="m0 0 10 1 8 5 6 7 2 5v6l-3 3-5-11-5-5-7-6h-6v3l9 1 5 5-5-2-2-1h-7l-6 4-1 3-1 19h-1l-2-11-2-5v-9l3-5 3-3z" fill="#E9C180"/>
<path transform="translate(617,338)" d="m0 0h12l8 6 3 1 4-3 2-4 5 9-1 8-4 1-1-3-7-2-3 5-4-1-9-6-7-3 1-7z" fill="#EFEDEB"/>
<path transform="translate(863,856)" d="m0 0 4 1 1 4-9 14-7 10-10 9-4 2h-3l-2 4h-12l5-4 17-12 5-5 8-11z" fill="#8655D5"/>
<path transform="translate(641,427)" d="m0 0h7l2 5v7l-4 4-7 1-12-5-1-5 1-2h-15l-1-2 4-1z" fill="#4D4A4A"/>
<path transform="translate(577,832)" d="m0 0 8 1 27 1 4 1-2 7-1 1h-37v-10z" fill="#626ECF"/>
<path transform="translate(1075,436)" d="m0 0 3 1-3 6-12 14-3 3v-2h-2l-1 4h-3l-9-7-5-3-2-1-2 6-9 10-7 8-5 7h-5l2-4 13-15 11-13 2-3 4 1 13 11 10-11 9-11z" fill="#1E1C28"/>
<path transform="translate(765,402)" d="m0 0h41l11 9 10 8 17 12 15 11 12 3-3 2h-7l-12-6-13-10-16-12-10-8-8-7-37-1z" fill="#B37F7B"/>
<path transform="translate(983,324)" d="m0 0h7l10 11 3 4v2h2l4 6 7 9 4 5v2h2v2h2v2h-7l-4-5v-2h-2l-4-6-5-5-10-12-7-8-3-2z" fill="#8655D5"/>
<path transform="translate(807,56)" d="m0 0h3v8h7l5 10v2h2l3-9 2-3 3 1-11 24-3 1 1-5 1-6-5-12h-5v15h-3v-15h-8v15h-3v-15l-5-1 1-2h4v-7h3v7h8z" fill="#E5E3E2"/>
<path transform="translate(679,848)" d="m0 0h3l1 7-3 24-3 8-4 5-4 8h-5l2-6 4-9 5-23 3-12z" fill="#8655D5"/>
<path transform="translate(833,64)" d="m0 0 4 1 2-1h7l5 5 1 6-3 5-5 3-6-1-1-1-1 8-3 1z" fill="#E9E8E7"/>
<path transform="translate(1017,409)" d="m0 0 7 6 9 6 5 5 5 8 4 2v2h9l3-6 4-2 2-4 9-2-4 6-13 14-2 3-4-1-12-10-3-1-2-7-1-3-4-2-3-3-5-2-4-6z" fill="#454244"/>
<path transform="translate(1069,267)" d="m0 0 2 2v9l-2 10-6 8-4 3-11 3-11-1-6-3-7-8-4-7 1-2 7 9 10 5h12l10-5 6-8 2-6z" fill="#191725"/>
<path transform="translate(838,329)" d="m0 0 4 1 7 7v2h2l5 5 10 8 6 4 2 7-1 2-4-2-13-10-11-9-10-11v-2z" fill="#8554D4"/>
<path transform="translate(934,299)" d="m0 0h1l1 8 6-1 3-3h3v-2l-7-1v-1h9v1l7 1-3 6-2 3-9 1-5-1-1 2 8 1 4 5-1 5-3 1-1-7-6-2-3 3-4 5-3 1-1-5 2-12 2-2v3h2z" fill="#B39074"/>
<path transform="translate(473,516)" d="m0 0 3 2 1 5v20l-2 5 66 1v1h-118v-1h41l-1-7h10z" fill="#2F3349"/>
<path transform="translate(1017,416)" d="m0 0h1v8l-7 11-13 16-14 19-9 12-7 10-1-2 3-7 7-10 8-12 7-8 3-4h2l2-6 7-10h2l1-4 6-9z" fill="#DAB581"/>
<path transform="translate(38,655)" d="m0 0h9l16 8 14 8 5 32 3 13 1 2-22 12-19 9-27 9-9 1-9-2 4-1h12l30-10 23-11 12-7h2l-6-29-2-16-9-6-20-10-15 1-19 1 4-2z" fill="#8655D5"/>
<path transform="translate(482,565)" d="m0 0h19l17 1 3 1 1 2 3 2h-66v-2l7-1z" fill="#424447"/>
<path transform="translate(1018,415)" d="m0 0 6 4h3l4 5 4 4 2 7-2 4-5 5-6-6-2-5-3-6-3 1z" fill="#424447"/>
<path transform="translate(991,251)" d="m0 0 4 2 5 6 3 8v8l-2 5-7-1-3-1v-11l-4-7 1-5z" fill="#BEABA9"/>
<path transform="translate(1092,202)" d="m0 0h1v106h-2l-2-6-1-23 1-14 1-6 1-49z" fill="#444244"/>
<path transform="translate(404,552)" d="m0 0 2 1v2l3-3 9 2h4l1-2-1 5-2 4-5 1-4 5-5 2-5 1-4-4v-11l5 1z" fill="#444144"/>
<path transform="translate(1129,399)" d="m0 0h1v10l-5 16-2 1-6-2v-2h-2l-1 7-11 12-4 4h-2l-2 6-4 1-10-9-3-2v-3l4 2 8 7 4-2 9-11 10-11 3-6 7 5 1-8 4-14z" fill="#1C1A26"/>
<path transform="translate(1103,812)" d="m0 0v3l-9 8-19 11-35 13-16 8-18 13-14 9-19 10-14 10-4 3-4-1 26-17 22-12 18-13 11-7 16-7 29-11 15-8 12-9z" fill="#8655D5"/>
<path transform="translate(605,309)" d="m0 0 13 3-1 3-3-1 4 6 5 5-2 12-4 2-3 6-1-2v-7l-4-11-2-11z" fill="#1D1B27"/>
<path transform="translate(946,390)" d="m0 0 3 2v2l5 2 8 6 11 7 7 4 5 1-4 4-5-1-13-8-7-5-1 6h-1v-5h-2v2l-7-2-1-7z" fill="#3B3B46"/>
<path transform="translate(4)" d="m0 0h3l5 25 7 24 6 15 13 28 4 12 8 43-1 7h-1l-2-17-7-34-6-16-11-23-7-19-8-29z" fill="#8655D5"/>
<path transform="translate(1298)" d="m0 0 4 2 12 16 11 13 16 16 8 7 9 7 12 3 19 3h12l15-4 17-6 3 1-15 6-17 5h-19l-24-4-6-3-14-12-8-8-5-4-7-8-9-10-13-17z" fill="#8655D5"/>
<path transform="translate(971,522)" d="m0 0h1v36l-4 61h-1l-1-11v-9l1-1v-30l2-42h2z" fill="#BEA4A6"/>
<path transform="translate(785,400)" d="m0 0h22l8 4 5 5 10 8 13 9 12 9-1 4-10-7-14-10-13-10-11-9-32-1v-1z" fill="#C0B3AB"/>
<path transform="translate(692,418)" d="m0 0 1 3-4 10h2l-3 9-13 30-2 5h-2l-1 2-1-5 6-15 5-13h-3l-1-9 4 4 3 1 1-4z" fill="#6E61CD"/>
<path transform="translate(463,514)" d="m0 0h9v28h-9z" fill="#BFAFAA"/>
<path transform="translate(1104,410)" d="m0 0h5l2 4-5 5-12 13-5 5-11-9-3-4 10 3 5-1 6-8 2 1z" fill="#434043"/>
<path transform="translate(842,845)" d="m0 0h48v1l-12 1-4 4-2 1h-25l-6-1v-5z" fill="#616ECF"/>
<path transform="translate(1126,399)" d="m0 0 3 1-5 18-1 4-4-2-6-4-4-5-3-3z" fill="#DAA65D"/>
<path transform="translate(884,139)" d="m0 0 6 1 20 13 11 8 7 10 8 16-1 4-10-19-7-10-23-15-8-5-7 1-14 5-5 1-16 1-2-2 7-2h11l20-6z" fill="#8655D5"/>
<path transform="translate(518,478)" d="m0 0 3 1v62l-2 5h-10l-1-4 3-1h7z" fill="#1F1C27"/>
<path transform="translate(661,313)" d="m0 0 1 3-5 10-8 4-6 1 2 6v5l-3 1-4-7-8-7-5-2 4-1h10l9-2 4-1v-2l7-6h2z" fill="#B38A77"/>
<path transform="translate(894,843)" d="m0 0h3v11h-43l-12-1v-1l30-1 4-2 2-3 12-1z" fill="#262A45"/>
<path transform="translate(700,164)" d="m0 0 9 5 6 7 1 5 1 9-5-2-8-5-3-3z" fill="#A55387"/>
<path transform="translate(574,289)" d="m0 0 13 4 5 3 4 2-1 3h-27l-1-5 4-6z" fill="#7E6E74"/>
<path transform="translate(1040,246)" d="m0 0h8l2 2-3 9-9 1-4 3h-2l-7-7 8-6z" fill="#DCA85D"/>
<path transform="translate(569,312)" d="m0 0h10l10 4 3 3 4 1v2h-30l-2-3 1-4z" fill="#767373"/>
<path transform="translate(930,813)" d="m0 0h11l7 2 1 3h-3l-1 4-3 1v2l-5-1-15-1 2-5z" fill="#6567CB"/>
<path transform="translate(858,64)" d="m0 0h8l4 4 1 5-1 1h-14l2 4 6 1 5-1-2 4-7 1-5-3-2-3v-8z" fill="#E9E8E7"/>
<path transform="translate(591,478)" d="m0 0h47v2l-10 2-10 1h-27z" fill="#EFEEEC"/>
<path transform="translate(924,355)" d="m0 0 7 2-10 10-6 9-3 2-1-10v-9l9-3z" fill="#EFD9B5"/>
<path transform="translate(976,256)" d="m0 0 7 1 6 4 2 4-1 3-4-4h-9l-7 4-3 4v7h-2l-2-5 1-9 6-7z" fill="#1B1925"/>
<path transform="translate(248,146)" d="m0 0 5 1 24 11 9 7 23 23 4 11 6 35 4 9-1 2-4-6-4-18-5-28-6-8-16-16-11-9-28-13z" fill="#8655D5"/>
<path transform="translate(1042,256)" d="m0 0 7 1 6 4 2 3-1 4-4-4-5-1-10 4-3 3-1 7 1 3h-2l-3-6 1-9 5-6z" fill="#1C1A26"/>
<path transform="translate(569,333)" d="m0 0 16 2 11 5v2h-28l-3-2 1-5z" fill="#777575"/>
<path transform="translate(990,277)" d="m0 0 11 3-4 8-8 6-6 1-1-10 7-6z" fill="#636CCF"/>
<path transform="translate(913,845)" d="m0 0 30 2-2 2v4h-25l-4-1z" fill="#6170CF"/>
<path transform="translate(323,245)" d="m0 0 5 5 14 19 11 13 14 11 16 8h33l9-2-2 2-6 2-16 1-19-1-10-4-13-9-10-9-8-9-10-14-8-11z" fill="#8655D5"/>
<path transform="translate(973,244)" d="m0 0h7l9 3-3 1-5-1h-7l-9 3-7 6-4 9-1 6h-19l-6-2v-1h7 3 12l1-10 2-4 11-7z" fill="#474445"/>
<path transform="translate(612,389)" d="m0 0 10 1 13 4v2l7 1v3l-2 1h-8l-20-7z" fill="#E5DFD7"/>
<path transform="translate(759,64)" d="m0 0h3l4 11 2-3 3-8 3 1 3 8v3h2l1-5 3-7h3l-3 9-4 9h-2l-5-11-4 11-3-1-6-15z" fill="#E8E7E6"/>
<path transform="translate(1375)" d="m0 0h39l-1 2-18 6-7-2-12-4z" fill="#7E46D3"/>
<path transform="translate(605,311)" d="m0 0 3 3 3 15 3 7v11h-10l4-2 1-3-4-11-1-12z" fill="#292E4A"/>
<path transform="translate(604,435)" d="m0 0h6l2 4-4 3-11 5h-3v-6l-21 3-10-1-3-2h13l25-2 3-1z" fill="#423F44"/>
<path transform="translate(496,498)" d="m0 0h1l1 11v32l-2 5-1 1-8-1-2-4h10v-43z" fill="#2B2830"/>
<path transform="translate(861,812)" d="m0 0h12l6 3-4 3v2l-4 1-1 2-13-2 3-3-5 1-2 1 2-4z" fill="#636CCE"/>
<path transform="translate(926,329)" d="m0 0 4 2 1 4v3l-14 7-13 2-7-2-2-3h13l12-4 6-5z" fill="#B18D74"/>
<path transform="translate(896,815)" d="m0 0h1v26l-3 1v2l-2 1h-6l-1-1 1-7 6-8 3-6z" fill="#B2558F"/>
<path transform="translate(977,268)" d="m0 0h8l4 4h-3-2l-2 4-4 1-4-1-3 1v2l2 1v2l7 2v1h-8l-6-5 1-7z" fill="#444244"/>
<path transform="translate(704,400)" d="m0 0h27v1l-15 1-3 5-10 7-4 1-1-3z" fill="#7E46D3"/>
<path transform="translate(1034,465)" d="m0 0 3 1v17h-45v-1l6-1h12l17 1 2-7 3-9z" fill="#464446"/>
<path transform="translate(964,844)" d="m0 0h1v11h-30v-1l10-1 1-5 12-1z" fill="#272C48"/>
<path transform="translate(622,338)" d="m0 0h7l8 6 3 1 4-3 2-4 5 9-1 8-4 1-1-3-6-1-2-5-10-6-5-2z" fill="#EDEAE4"/>
<path transform="translate(623,327)" d="m0 0 4 2 6 4 8 8v2l2 1-4 2-6-4-4-3-9-1 2-10z" fill="#E9C384"/>
<path transform="translate(618,838)" d="m0 0h1v7l-9 2-34-1v-3l2-1h39z" fill="#1D1D2F"/>
<path transform="translate(964,819)" d="m0 0h1v20l-2 5-5 3h-8l2-6h2v-2h2l2-4 3-5 2-1z" fill="#B4568E"/>
<path transform="translate(668,799)" d="m0 0 11 1 3 3-10 5h-13v-7l1-1z" fill="#E8C384"/>
<path transform="translate(610,457)" d="m0 0 4 2-1 7-5 7-6 1-3-3 1-5 6-7z" fill="#EBC585"/>
<path transform="translate(451,485)" d="m0 0 2 3v55l-2 3h-8l-2-4 9-1z" fill="#171522"/>
<path transform="translate(938,314)" d="m0 0 7 3v10l-4 4-7-1-2-5 3-2 1-7z" fill="#E9C385"/>
<path transform="translate(930,333)" d="m0 0 3 1 1 7 1 2-2 5-14 4h-6l1-4 14-7 2-3z" fill="#4E4A4B"/>
<path transform="translate(725,841)" d="m0 0 1 4-1 1h-57l-12-1v-1l23-2 4 1h40z" fill="#1A1929"/>
<path transform="translate(582,638)" d="m0 0h1v27l-1 25h-1v-16h-2l-1-4h-2l1-7 3-15z" fill="#7E46D3"/>
<path transform="translate(691,805)" d="m0 0h9l12 4 2 4h-12l-1 3-2-2 1-2h-8v-2h-6l1-3z" fill="#626DCF"/>
<path transform="translate(1036,452)" d="m0 0 1 4-10 11-7 8-5 7h-5l2-4 13-15 4-5z" fill="#1C1A26"/>
<path transform="translate(893,281)" d="m0 0 2 1 3 5v2l-4 3-1 3-1 19h-1l-2-11-2-5v-9l3-5z" fill="#D6A56F"/>
<path transform="translate(841,66)" d="m0 0 5 1 3 5-2 6-3 2-6-1-2-3v-6z" fill="#7F48D3"/>
<path transform="translate(968,437)" d="m0 0 1 3 5 1 2 2v9l-7 10-2-1z" fill="#282B44"/>
<path transform="translate(946,390)" d="m0 0 3 2v2l5 2 8 6 11 7 7 4 5 1-4 3v-2l-10-3-7-6-5-2-4-4-5-3-3 1 3 6 2 1v2l-7-2-1-7z" fill="#4A4649"/>
<path transform="translate(632,262)" d="m0 0 4 1-9 6-16 17-2 1 3 2-12 2-4 1-1-1v-5l2 1 5-3 3-3 2 1-4 5 8-4 9-10 7-8z" fill="#171522"/>
<path transform="translate(872,64)" d="m0 0h13l3 3 1 4v11h-3l-1-12-3-3-5 1-1 3-1 11-3-1z" fill="#E4E1DF"/>
<path transform="translate(608,875)" d="m0 0 2 1-10 6-18 8-18 6-13 4h-9l3-2 32-9 20-8z" fill="#8655D5"/>
<path transform="translate(639,266)" d="m0 0 4 1 3 2-10 5-9 11-9 4h-6l1-2 8-3 8-7 7-9z" fill="#1B1925"/>
<path transform="translate(594,805)" d="m0 0 14 1 3 4-1 3-4-1h-12l-5 1-2-6z" fill="#6170CF"/>
<path transform="translate(567,456)" d="m0 0 21 3 1 5-1 1-18-1-2-1z" fill="#8655D5"/>
<path transform="translate(814,64)" d="m0 0 4 1 4 9v2h2l3-9 2-3 3 1-11 24-3 1 1-5 1-6-5-13z" fill="#E5E3E2"/>
<path transform="translate(620,398)" d="m0 0 12 2 5 2v2l-9 3-2 1h-6l-1-4-2-1z" fill="#E2AF62"/>
<path transform="translate(954,232)" d="m0 0 56 1v1l-17 1-6 1v2h-6l3-1h-4l-2 1-5-1-4-1-13-2z" fill="#454244"/>
<path transform="translate(897,451)" d="m0 0h29l12 2v1h-28l-25 2 4-4z" fill="#E9D6B8"/>
<path transform="translate(619,289)" d="m0 0h6l-1 11-2 5h-3l-2-9-4-1h2v-4z" fill="#4F4B4B"/>
<path transform="translate(1129,399)" d="m0 0h1v10l-5 16-2 1-6-2v-2l-3-1 3-4 6 5 1-8 4-14z" fill="#1E1C27"/>
<path transform="translate(899,463)" d="m0 0h54l2 1 1 5-4-2-1-1-12-1h-35l-24 2v-2l5-1z" fill="#E1E1E1"/>
<path transform="translate(523,346)" d="m0 0 3 1h-2v5l8 2 8-1 5 1-4 3h-18v2l3 1-11-1h-7v-1l13-2-1-5z" fill="#424447"/>
<path transform="translate(937,798)" d="m0 0h25l-1 9-3-3-3-1-17-1z" fill="#4B4748"/>
<path transform="translate(950,322)" d="m0 0h2l-2 6-7 10-8 5-2-2v-3l5-2v-4l-2-1 9-3z" fill="#3B3940"/>
<path transform="translate(695,162)" d="m0 0 5 1 1 7v14l-5 1z" fill="#C7B7B0"/>
<path transform="translate(734,205)" d="m0 0 11 6 14 10 9 7v2l-5-2-14-9-5-5-10-7z" fill="#524D4D"/>
<path transform="translate(485,498)" d="m0 0h11l-1 30h-1l-1-22-1-5h-4l-1 18h-2z" fill="#E8BF7C"/>
<path transform="translate(584,799)" d="m0 0h13l8 3 2 1v2h-8v-2l-12 2-3 1-1-6z" fill="#B4907D"/>
<path transform="translate(935,271)" d="m0 0h18l7 4v2h-2v6h-3l-7-8-5-2-8-1z" fill="#E6BD7B"/>
<path transform="translate(966,497)" d="m0 0 2 2-1 6-10 1-12 7-4-1 5-3 3-3 5-4 3 1z" fill="#B69781"/>
<path transform="translate(924,355)" d="m0 0 7 2-4 4-6 1-5 2-3 1-2 3v-9l9-3z" fill="#E8C386"/>
<path transform="translate(1043,268)" d="m0 0h7l3 3-5 2-5 1-3 4-3 1v4l-3-1v-8l6-5z" fill="#454244"/>
<path transform="translate(1049,324)" d="m0 0 4 2 8 14 20 26h-3l-12-15-11-15z" fill="#8655D5"/>
<path transform="translate(869,801)" d="m0 0h16l8 4 3 6v2h-4l-3-5-6-3-5-1h-9z" fill="#B38977"/>
<path transform="translate(862,416)" d="m0 0 4 2 7 8 3 7-2 9-2 1-3-16-5-7h-2z" fill="#E5C289"/>
<path transform="translate(725,437)" d="m0 0 9 2 5 1-2 3h-10v5l-5 1-1-4 3-3z" fill="#D1B08E"/>
<path transform="translate(661,796)" d="m0 0h23v7l-5-2-18-2z" fill="#37343B"/>
<path transform="translate(869,798)" d="m0 0h16l9 1v8l-6-4-3-1-16-1z" fill="#383740"/>
<path transform="translate(679,449)" d="m0 0 1 3-2 7 1 2-6 14h-2l-1 2-1-5 6-15z" fill="#6C61CF"/>
<path transform="translate(671,477)" d="m0 0h10l-1 6h-62v-1l57-1 3-1v-2h-7z" fill="#A863A4"/>
<path transform="translate(866,418)" d="m0 0 5 2 7 6 1 2v7l-4 8-4 2 3-5 1-7-5-10z" fill="#B38D75"/>
<path transform="translate(987,410)" d="m0 0 12 6 4 1-1 3-4 2-10-4-2-2z" fill="#E3BD83"/>
<path transform="translate(576,670)" d="m0 0h2l1 4h2v18l-3-4-4-13v-4z" fill="#8655D5"/>
<path transform="translate(473,516)" d="m0 0h1l1 8v18l-2 4h-9l-1-4h10z" fill="#171522"/>
<path transform="translate(1038,447)" d="m0 0 4 1 13 11h3l-2 4-9-6-6-5h-4l-5 4 2-4z" fill="#23202B"/>
<path transform="translate(929,338)" d="m0 0v3l-4 3-9 4-2 1-1 3h6l-4 2h-3v-4l-9-2-3-2 13-1 13-5z" fill="#B4568E"/>
<path transform="translate(937,801)" d="m0 0 18 1 5 3 3 7v2h-3l-3-6-6-3h-14z" fill="#B38877"/>
<path transform="translate(635,573)" d="m0 0 1 2 5-2h5l1 6-16 1 1-6z" fill="#8554D4"/>
<path transform="translate(699,188)" d="m0 0 6 2-5 6-6 4-5-1-1-2 8-6z" fill="#AF5493"/>
<path transform="translate(868,806)" d="m0 0h8l4 8-17-2 3-5z" fill="#EBEAE9"/>
<path transform="translate(904,450)" d="m0 0h31l10 1 2 1v3l-21-3h-21z" fill="#C3A380"/>
<path transform="translate(922,823)" d="m0 0h15l1 2-18 5-3 3 1-5z" fill="#EAE9E9"/>
<path transform="translate(960,276)" d="m0 0 3 4v9l-2 4h-3l-2-10h2v-6z" fill="#DEA95C"/>
<path transform="translate(498,527)" d="m0 0h2v15l-2 7h-13l-1-4h3l8 1 2-5z" fill="#3E4047"/>
<path transform="translate(1036,505)" d="m0 0 4 4v5l1 2h-12l1-6h2l2-4 1 2z" fill="#454244"/>
<path transform="translate(727,430)" d="m0 0 9 1 6 2-1 4-14-1-1-5z" fill="#B38C75"/>
<path transform="translate(731,423)" d="m0 0 10 1 3 2v4h-8l-6-2z" fill="#E3C599"/>
<path transform="translate(936,807)" d="m0 0 5 1 7 2v5l-17-2z" fill="#EDEDED"/>
<path transform="translate(1040,453)" d="m0 0 5 1 11 9-1 2-5-4h-5l-5 4z" fill="#434144"/>
<path transform="translate(1016,418)" d="m0 0h1l-1 7-12 16-5 5 1-5 6-8h2l1-4 6-9z" fill="#C0B3AB"/>
<path transform="translate(668,799)" d="m0 0 11 1 3 3h-13l-10 3v-5l1-1z" fill="#B38C75"/>
<path transform="translate(522,495)" d="m0 0h1l1 6 1 25-2 18h-1z" fill="#444244"/>
<path transform="translate(1070,264)" d="m0 0 3 3 5 9 2 7v5l-2 1-2-3-2-1v-8l-2-8h-2z" fill="#444244"/>
<path transform="translate(1019,420)" d="m0 0 2 4 3 5 4 5 2 6 1 4-7-6-2-5-3-6-3 1 2-5z" fill="#2A2E49"/>
<path transform="translate(596,395)" d="m0 0 1 4-2 13-7 1-1-2 3-6 3-1z" fill="#955985"/>
<path transform="translate(553,316)" d="m0 0h8v9h-8z" fill="#646BCF"/>
<path transform="translate(553,295)" d="m0 0h7l1 1v8h-8z" fill="#B4568E"/>
<path transform="translate(553,274)" d="m0 0h7l1 1v8h-8z" fill="#DCA85D"/>
<path transform="translate(1063,477)" d="m0 0h9 3v5h-16v-2z" fill="#4E4A4A"/>
<path transform="translate(1046,476)" d="m0 0 8 2v2h2l1-2v4h-16v-3z" fill="#4E4A4A"/>
<path transform="translate(657,302)" d="m0 0h2v10h-2l-2 4-8-1v-3h8v-3h-2v-2h2v-2h2z" fill="#CB9D5E"/>
<path transform="translate(808,64)" d="m0 0h6l2 2-6 1v15h-3v-17z" fill="#E8E7E6"/>
<path transform="translate(857,821)" d="m0 0 11 1-1 3-6 2-10-1 3-4z" fill="#ECEBEB"/>
<path transform="translate(1017,416)" d="m0 0h1v8l-7 11-13 16-1-4 5-5 9-11 5-8z" fill="#B39277"/>
<path transform="translate(951,498)" d="m0 0v3l-14 13h-4l1-3 11-9z" fill="#E5B872"/>
<path transform="translate(553,337)" d="m0 0h8v8h-8z" fill="#C1B5AD"/>
<path transform="translate(872,64)" d="m0 0 6 1-2 6-1 11-3-1z" fill="#E2DDDB"/>
<path transform="translate(944,495)" d="m0 0h2l-2 4-12 9-4-1 5-5z" fill="#E5B66E"/>
<path transform="translate(719,199)" d="m0 0 7 2 2 4 9 3 12 9-2 1-23-14-5-3z" fill="#322B39"/>
<path transform="translate(731,46)" d="m0 0 4 1 1 4 4 1 1 3-1 2-11-1 4-1-2-3z" fill="#A584D7"/>
<path transform="translate(953,411)" d="m0 0h1l-1 9-3 20h-1l-1-16 2-7z" fill="#48454B"/>
<path transform="translate(725,841)" d="m0 0 1 4-1 1h-25l-4-2 27-1z" fill="#252943"/>
<path transform="translate(1078,438)" d="m0 0 4 2 8 7 4-1 2-1-1 6-4 1-10-9-3-2z" fill="#1F1D28"/>
<path transform="translate(833,64)" d="m0 0 4 1 4-1v3l-4 3-1 5h-1v15h-2z" fill="#E2E1E0"/>
<path transform="translate(1114,424)" d="m0 0h1v9l-1 7-1-2h-5l-4 4 1-4 8-9z" fill="#3D3E46"/>
<path transform="translate(912,770)" d="m0 0 8 2 1 1v5l-10-2-1-4z" fill="#8655D5"/>
<path transform="translate(946,396)" d="m0 0h3l7 6-1 8h-1v-5l-5-1-3-6z" fill="#272940"/>
<path transform="translate(676,371)" d="m0 0h1l-1 13-2 16-2 3v-13l3-15z" fill="#9E816B"/>
<path transform="translate(813,373)" d="m0 0h8l13 10 4 4-1 2-14-12-2-1-10-1z" fill="#8655D5"/>
<path transform="translate(919,332)" d="m0 0 1 3-2 5-8 2-6-2 12-6z" fill="#C0B3AA"/>
<path transform="translate(939,272)" d="m0 0 7 1 8 7 2 3v5h-8l-4-2h10l-4-6-2-4-9-3z" fill="#B1757E"/>
<path transform="translate(1e3 266)" d="m0 0 4 1 2 6v8l-5 9-1-2 2-8v-13z" fill="#363A48"/>
<path transform="translate(652,256)" d="m0 0 7 1 2 5-8-1-8 2 2-5z" fill="#1C1A27"/>
<path transform="translate(455,509)" d="m0 0h1v28h2v3h2l1-2 1 6-2-1v-2h-2v2l-3 1-1-3z" fill="#454244"/>
<path transform="translate(439,490)" d="m0 0h1v47l-2-3-1-6 1-6z" fill="#454244"/>
<path transform="translate(923,323)" d="m0 0 2 3 2 7-7 6h-2l1-4 2-5z" fill="#EAC485"/>
<path transform="translate(728,600)" d="m0 0 2 1-16 8-13 6h-2v-2z" fill="#8655D5"/>
<path transform="translate(873,421)" d="m0 0 11 2-3 10-2 5-1-3v-7z" fill="#413F44"/>
<path transform="translate(783,64)" d="m0 0h3l-3 9-4 9h-2l-1-5h3l1-6z" fill="#E6E4E3"/>
<path transform="translate(860,66)" d="m0 0 6 1 2 5h-12l1-4z" fill="#824DD1"/>
<path transform="translate(643,271)" d="m0 0h9l5 5v9l-4 1 1-11-5-2h-7z" fill="#E1AB5B"/>
<path transform="translate(771,64)" d="m0 0 3 1 3 8v3l2 1-4 1-3-7-2 3h-2z" fill="#E4E2E1"/>
<path transform="translate(894,337)" d="m0 0 16 4-2 2h-11l-4-3z" fill="#E5C089"/>
<path transform="translate(902,281)" d="m0 0 6 1 8 8h-3l-4-3-9-1-1-2z" fill="#B39074"/>
<path transform="translate(787,64)" d="m0 0h3v18h-3z" fill="#E7E7E7"/>
<path transform="translate(594,265)" d="m0 0h2v2l3-1-3 9-1 2h-5l3-1-1-4 1-6z" fill="#424447"/>
<path transform="translate(441,485)" d="m0 0h9v33h-1l-1-29-1-2-6 2z" fill="#E1E1E1"/>
<path transform="translate(867,846)" d="m0 0h11l-2 4-4 2h-9v-1h5z" fill="#7E46D3"/>
<path transform="translate(721,826)" d="m0 0h3l1 9h-17v-1l12-1-1-5h2z" fill="#DBD8D7"/>
<path transform="translate(854,436)" d="m0 0 5 2 9 5 4 1-1 1-9-1-7-4z" fill="#EBC585"/>
<path transform="translate(652,418)" d="m0 0 1 4-6 4-2-1v-3l-6-2v-1z" fill="#9B7B53"/>
<path transform="translate(592,796)" d="m0 0 15 1v6l-10-3v-2h-8z" fill="#474445"/>
<path transform="translate(496,541)" d="m0 0 1 4-2 2-8-1-2-4z" fill="#171522"/>
<path transform="translate(969,302)" d="m0 0 8 1v1h-7l-1 13 2 1-5-1 1-13h2z" fill="#292E4B"/>
<path transform="translate(779,238)" d="m0 0 8 1 2-1-1 6-3 2-4-1z" fill="#613DA4"/>
<path transform="translate(966,497)" d="m0 0 2 2-1 6h-10v-2z" fill="#B897A4"/>
<path transform="translate(695,186)" d="m0 0h3l-2 4-6 4v3l-6 1v-3z" fill="#DCD9D7"/>
<path transform="translate(727,443)" d="m0 0h9l-2 4-4 3-4-1z" fill="#484548"/>
<path transform="translate(624,326)" d="m0 0 9 4 7 7 2 3-1 3-7-8-5-4-5-2z" fill="#E1AB5B"/>
<path transform="translate(954,290)" d="m0 0 2 4 1 4-1 1h-5v-2l-5-2 2-2z" fill="#B39074"/>
<path transform="translate(1082,477)" d="m0 0 6 1 5 2v2h-13v-3z" fill="#4F4B4B"/>
<path transform="translate(956,286)" d="m0 0 2 3 3 11-2 1-2-1v-5l-2-1v-4l-5-2 4-1 2 1z" fill="#454346"/>
<path transform="translate(928,510)" d="m0 0 4 2 5 1 2-1 6 1-5 4h-7l-5-6z" fill="#E1E0E0"/>
<path transform="translate(731,67)" d="m0 0h4l-1 16-1 5h-1l-1-17z" fill="#A16BB4"/>
<path transform="translate(914,530)" d="m0 0 2 2 2 8-2 13h-1l-1-9z" fill="#BC96A1"/>
<path transform="translate(995,449)" d="m0 0h2l-1 5-7 9v-3l1-4z" fill="#CFAE85"/>
<path transform="translate(657,403)" d="m0 0 7 1v4l-10-1-1-2z" fill="#E9E7E4"/>
<path transform="translate(939,463)" d="m0 0h14l2 1 1 5-4-2-1-1-12-1z" fill="#DDDCDB"/>
<path transform="translate(651,414)" d="m0 0h1v5l-12 1-2 1 1-4z" fill="#E9C384"/>
<path transform="translate(869,800)" d="m0 0h24v5l-8-3-16-1z" fill="#4D4949"/>
<path transform="translate(946,390)" d="m0 0 2 2-1 6 3 6 2 1v2l-7-2-1-7z" fill="#4F4B4B"/>
<path transform="translate(642,270)" d="m0 0h10v1l-9 1-10 8h-3l6-7z" fill="#B39074"/>
<path transform="translate(967,406)" d="m0 0 13 7 5 1-4 3v-2l-10-3-4-4z" fill="#4E4A4A"/>
<path transform="translate(475,543)" d="m0 0 1 3-2 3h-10l-1-3 10-1z" fill="#3C3E47"/>
<path transform="translate(622,338)" d="m0 0h7l8 6 3 3-5-1-8-5-5-2z" fill="#F0DDBE"/>
<path transform="translate(930,330)" d="m0 0 8 2 1 4-2 2-4-1-3-5z" fill="#D3B185"/>
<path transform="translate(553,283)" d="m0 0h10l-1 4h-8z" fill="#171522"/>
<path transform="translate(878,806)" d="m0 0 6 2 6 5-4 1-5-1z" fill="#F0DDBE"/>
<path transform="translate(940,491)" d="m0 0h2l-1 3-11 6h-5l4-3z" fill="#EBC585"/>
<path transform="translate(934,299)" d="m0 0h1v10l-5 11-1-4 4-12z" fill="#4C4949"/>
<path transform="translate(498,527)" d="m0 0h2v15l-3 3z" fill="#3F4247"/>
<path transform="translate(729,438)" d="m0 0 10 2-2 3h-10z" fill="#B38777"/>
<path transform="translate(742,425)" d="m0 0 2 1v4h-8l-2-1v-2l7-1z" fill="#B38976"/>
<path transform="translate(590,803)" d="m0 0h9v2l-12 2-1 2 1-5z" fill="#E9E6E2"/>
<path transform="translate(669,798)" d="m0 0h14l1 5-5-2-10-2z" fill="#4F4B4B"/>
<path transform="translate(671,477)" d="m0 0h10l-1 6h-10v-1l8-2v-2h-7z" fill="#BEABA6"/>
<path transform="translate(679,449)" d="m0 0 1 3-5 12-3 4 2-9z" fill="#8148CC"/>
<path transform="translate(639,432)" d="m0 0h3l1 4-1 2h-6l-1-3 1-2z" fill="#454244"/>
<path transform="translate(895,329)" d="m0 0h9l3 1-2 4-1-2h-8z" fill="#996F70"/>
<path transform="translate(562,286)" d="m0 0h2l-2 4-7 1-2-4z" fill="#444244"/>
<path transform="translate(969,279)" d="m0 0 4 1v2l7 2v1h-8l-5-5z" fill="#454345"/>
<path transform="translate(948,798)" d="m0 0h14l-1 5-3-2-11-1z" fill="#312E36"/>
<path transform="translate(729,436)" d="m0 0h7l4 1-1 3-9-1-2-2z" fill="#3F3C3F"/>
<path transform="translate(561,345)" d="m0 0h2l-1 4-1 1-7-1-1-3z" fill="#171522"/>
<path transform="translate(858,64)" d="m0 0h8l-2 3-6 1-5 3 2-5z" fill="#EAEAEA"/>
<path transform="translate(967,492)" d="m0 0h1v7h-3l-8 5-1-2 9-7z" fill="#454349"/>
<path transform="translate(976,478)" d="m0 0v3l-8 11-1-2 3-7z" fill="#C8A07F"/>
<path transform="translate(727,430)" d="m0 0 9 1v2h-6v2h-4z" fill="#E4CCA6"/>
<path transform="translate(1114,402)" d="m0 0 4 1-11 6-3 1 2-4z" fill="#474345"/>
<path transform="translate(612,389)" d="m0 0 10 1 3 2-4 1-8-2v2l4 2-5-1z" fill="#EBDEC9"/>
<path transform="translate(953,358)" d="m0 0 6 2 10 8-2 1-14-10z" fill="#8655D5"/>
<path transform="translate(733,329)" d="m0 0 5 2 13 5-2 3-15-8z" fill="#262A44"/>
<path transform="translate(655,311)" d="m0 0 3 1-4 4-7-1v-3z" fill="#474445"/>
<path transform="translate(553,304)" d="m0 0h9l-1 4h-6l-2-1z" fill="#171522"/>
<path transform="translate(644,294)" d="m0 0 3 2-1 5-5-1 1-5z" fill="#24222C"/>
<path transform="translate(937,309)" d="m0 0 18 2v1l-14 1-4-1z" fill="#444143"/>
<path transform="translate(928,268)" d="m0 0h7 3l10 1v1l-14 1-6-2z" fill="#454244"/>
<path transform="translate(773,226)" d="m0 0 5 2 10 6v2l-6-2-9-7z" fill="#BEAAA8"/>
<path transform="translate(709,194)" d="m0 0 5 1 3 3-7 1-1-1-3 3h-2v-2z" fill="#212339"/>
<path transform="translate(890,256)" d="m0 0 2 2 2 6-5 1-1-1v-5h2z" fill="#8453D4"/>
<path transform="translate(1075,442)" d="m0 0h1v6l-5 2-4 3 2-4z" fill="#3A3D48"/>
<path transform="translate(676,435)" d="m0 0 6 5-1 4h-4z" fill="#4A4647"/>
<path transform="translate(1e3 434)" d="m0 0 2 1-2 5-5 6-1-3z" fill="#D9BD94"/>
<path transform="translate(971,412)" d="m0 0 8 2 2 1v3l-5-1-5-3z" fill="#2E3249"/>
<path transform="translate(613,391)" d="m0 0h6l5 2v2h-7l-4-2z" fill="#EDEDED"/>
<path transform="translate(616,824)" d="m0 0 2 4v7h-6l3-2-1-4z" fill="#D6D2D0"/>
<path transform="translate(946,806)" d="m0 0 5 1 6 5-1 2-3-2-3 2-2-6z" fill="#F0DDBE"/>
<path transform="translate(584,801)" d="m0 0h9l-3 3-6 2-1-4z" fill="#E4B670"/>
<path transform="translate(560,325)" d="m0 0h3l-1 4h-7l-2-3z" fill="#171522"/>
<path transform="translate(735,208)" d="m0 0 5 2 9 7-2 1-11-7z" fill="#3E3D44"/>
<path transform="translate(856,74)" d="m0 0h14v1l-8 1-1 2-2-1-1 2-2-2z" fill="#8655D5"/>
<path transform="translate(730,59)" d="m0 0h6l-1 2-7 3-2 3h-2l2-5z" fill="#824ED4"/>
<path transform="translate(941,507)" d="m0 0 2 1-6 6h-4l1-3z" fill="#AF9178"/>
<path transform="translate(669,843)" d="m0 0 4 1 2 2-19-1v-1z" fill="#242740"/>
<path transform="translate(946,505)" d="m0 0 2 1-2 4-5 3h-2l2-4z" fill="#EADCC5"/>
<path transform="translate(731,429)" d="m0 0 12 1-1 3-6-1-5-2z" fill="#534A4C"/>
<path transform="translate(931,341)" d="m0 0 4 2-1 2-9 3z" fill="#454245"/>
<path transform="translate(896,332)" d="m0 0h8l1 3-6 1-3-3z" fill="#E3B064"/>
<path transform="translate(963,283)" d="m0 0h1v9l-3 6-2-1v-4h2z" fill="#B39074"/>
<path transform="translate(759,64)" d="m0 0h3l3 9-3 1z" fill="#DFD8D8"/>
<path transform="translate(745,57)" d="m0 0 4 1-2 4h-3l-3-4z" fill="#8655D5"/>
<path transform="translate(636,330)" d="m0 0h9l-2 1 2 8-7-7z" fill="#85506F"/>
<path transform="translate(895,312)" d="m0 0 4 1-1 5-4-1z" fill="#211F2A"/>
<path transform="translate(656,294)" d="m0 0 3 1v6l-4-1-1-3z" fill="#211E29"/>
<path transform="translate(916,290)" d="m0 0 4 4 1 5-2 1-5-9z" fill="#E4B469"/>
<path transform="translate(698,187)" d="m0 0 2 1-7 7-3 1-2-2z" fill="#C0B3AB"/>
<path transform="translate(738,151)" d="m0 0h7l-5 4-7-1 2-2z" fill="#8554D4"/>
</svg>
